<svg id="svg" 
xmlns="http://www.w3.org/2000/svg" xmlns:xlink="http://www.w3.org/1999/xlink" width="400" height="400" viewBox="0, 0, 400,400" version="1.1"><g id="svgg">
<path id="path0"
 d="M236.863 2.871 C 91.919 12.888,31.458 56.973,8.999 169.020 C -0.998 218.891,-1.758 282.697,6.556 374.085 L 8.235 392.549 20.392 393.484 C 183.468 406.022,271.636 394.239,327.289 352.472 C 370.659 319.921,393.898 252.959,397.662 149.689 C 398.734 120.283,396.245 51.777,394.020 49.459 C 393.838 49.269,383.453 49.760,370.942 50.550 C 358.432 51.340,347.976 51.766,347.707 51.497 C 347.438 51.228,347.864 41.125,348.654 29.046 C 349.443 16.966,349.937 6.939,349.751 6.762 C 349.247 6.285,324.570 4.022,310.196 3.134 C 298.980 2.441,245.841 2.250,236.863 2.871 " stroke="none" fill="#000000" fill-rule="evenodd"></path></g></svg>