<svg id="svg" version="1.1" xmlns="http://www.w3.org/2000/svg" xmlns:xlink="http://www.w3.org/1999/xlink" width="400" height="555.2941176470589" viewBox="0, 0, 400,555.2941176470589"><g id="svgg"><path id="path0" d="M50.196 29.020 L 50.196 50.980 28.627 50.980 L 7.059 50.980 7.067 204.510 C 7.075 361.821,7.173 367.447,10.236 386.569 C 24.472 475.435,88.848 534.511,180.392 542.716 C 192.076 543.763,306.756 543.779,323.922 542.736 C 361.068 540.478,377.886 535.799,382.688 526.386 C 388.318 515.351,391.808 473.027,393.725 392.549 C 394.759 349.129,394.745 186.070,393.706 175.573 C 385.033 87.955,332.316 28.131,249.020 11.381 C 228.077 7.170,225.179 7.061,134.314 7.060 L 50.196 7.059 50.196 29.020 " stroke="none" fill="#000000" fill-rule="evenodd"></path></g></svg>